<svg id="Capa_1" enable-background="new 0 0 512.002 512.002" height="512" viewBox="0 0 512.002 512.002" width="512" xmlns="http://www.w3.org/2000/svg"><g id="XMLID_800_"><g id="XMLID_1053_"><path id="XMLID_469_" d="m340.225 30.001h-168.447c-25.512 0-48.547 15.268-58.484 38.765l-51.273 121.235h387.96l-51.272-121.235c-9.937-23.497-32.972-38.765-58.484-38.765z" fill="#ffda8f"/></g><g id="XMLID_1052_"><path id="XMLID_460_" d="m10.002 183.231 24.48 81.179c6.014 19.944 24.385 33.592 45.215 33.592h352.609c20.83 0 39.201-13.648 45.215-33.591l24.479-81.179c-155.154-74.3-336.844-74.301-491.998-.001z" fill="#ffcd69"/></g><g id="XMLID_1047_"><g id="XMLID_1056_"><path id="XMLID_12_" d="m230.5 376.577c-26.314 0-49.434 14.468-61.469 35.884l.013.008c-16.544 28.254-47.217 47.23-82.322 47.23-8.043 0-15.854-.996-23.316-2.872 21.357 15.82 47.789 25.175 76.408 25.175 48.84 0 91.317-27.248 113.057-67.371 9.218-17.011-3.025-37.954-22.371-38.054-.123 0 .124 0 0 0z" fill="#6d92ac"/></g><g id="XMLID_1055_"><path d="m281.502 376.577c26.314 0 49.434 14.468 61.469 35.884l-.013.008c16.543 28.254 47.217 47.23 82.322 47.23 8.043 0 15.854-.996 23.315-2.872-21.357 15.82-47.789 25.175-76.408 25.175-48.84 0-91.317-27.248-113.057-67.371-9.216-17.011 3.026-37.954 22.372-38.054z" fill="#6d92ac"/></g></g><g id="XMLID_466_"><path id="XMLID_474_" d="m506.32 174.213c-20.424-9.781-41.486-18.333-63.003-25.644l-35.397-83.698c-11.528-27.257-38.1-44.87-67.694-44.87h-168.449c-29.595 0-56.167 17.613-67.694 44.87l-35.397 83.697c-21.518 7.311-42.579 15.863-63.003 25.643-4.448 2.13-6.679 7.185-5.255 11.906l24.48 81.179c7.342 24.347 29.36 40.705 54.79 40.705h131.305c5.523 0 10-4.477 10-10s-4.477-10-10-10h-131.306c-16.542 0-30.865-10.641-35.641-26.479l-21.986-72.908c147.126-67.617 320.734-67.617 467.862.002l-21.986 72.907c-4.776 15.837-19.099 26.479-35.641 26.479h-131.304c-5.523 0-10 4.477-10 10s4.477 10 10 10h131.304c25.429 0 47.448-16.358 54.79-40.704l24.48-81.177c1.424-4.723-.807-9.778-5.255-11.908zm-250.321-56.707c-54.777 0-109.662 7.914-162.262 23.175l28.767-68.021c8.391-19.84 27.731-32.66 49.273-32.66h168.448c21.542 0 40.883 12.82 49.274 32.66l28.768 68.022c-52.601-15.262-107.485-23.177-162.266-23.177-.005.001.003.001-.002.001z"/><path id="XMLID_479_" d="m446.157 447.128c-6.785 1.706-13.809 2.57-20.878 2.57-30.011 0-58.097-16.017-73.428-41.836-.052-.101-.107-.201-.163-.301-14.207-25.28-41.101-40.985-70.187-40.985-.073 0-.146.001-.219.002-9.748.095-18.742 4.092-25.282 10.972-6.536-6.875-15.523-10.872-25.274-10.972-.075-.001-.15-.002-.226-.002-29.086 0-55.98 15.704-70.187 40.984-.057.101-.112.203-.165.306-15.332 25.815-43.417 41.831-73.426 41.831-7.07 0-14.094-.865-20.878-2.57-4.627-1.165-9.436 1.106-11.478 5.421-2.041 4.315-.749 9.471 3.087 12.312 23.969 17.755 52.449 27.14 82.36 27.14 47.188 0 90.748-23.929 116.186-63.111 25.437 39.181 68.998 63.111 116.185 63.111 29.911 0 58.391-9.385 82.36-27.14 3.836-2.841 5.128-7.998 3.087-12.312-2.039-4.314-6.842-6.584-11.474-5.42zm-202.077-37.262c-20.766 38.326-60.718 62.135-104.264 62.135-11.042 0-21.854-1.494-32.227-4.412 29.047-5.921 54.818-23.994 70.085-50.068.118-.201.229-.406.33-.611 10.714-18.685 30.722-30.285 52.366-30.333.026.001.053.001.079.001 5.569.028 10.414 2.832 13.29 7.689 2.875 4.856 3.002 10.687.341 15.599zm128.107 62.135c-43.546 0-83.498-23.809-104.264-62.136-2.662-4.911-2.534-10.743.34-15.598 2.876-4.858 7.721-7.661 13.278-7.689.03 0 .06 0 .09-.001 21.648.046 41.657 11.65 52.371 30.34.101.204.21.406.326.604 15.266 26.073 41.04 44.146 70.084 50.069-10.371 2.917-21.184 4.411-32.225 4.411z"/><path id="XMLID_697_" d="m263.071 305.071c1.86-1.86 2.93-4.44 2.93-7.07s-1.07-5.21-2.93-7.07-4.44-2.93-7.07-2.93-5.21 1.07-7.07 2.93-2.93 4.44-2.93 7.07 1.07 5.21 2.93 7.07 4.44 2.93 7.07 2.93 5.21-1.07 7.07-2.93z"/></g></g></svg>