<svg id="Capa_1" enable-background="new 0 0 512 512" height="512" viewBox="0 0 512 512" width="512" xmlns="http://www.w3.org/2000/svg"><g id="XMLID_1527_"><g id="XMLID_1531_"><g id="XMLID_1539_"><path id="XMLID_1166_" d="m141.26 218.125c12.088 12.088 12.088 31.686 0 43.774l-21.887 21.887-21.887-21.887c-12.088-12.088-12.088-31.686 0-43.774z" fill="#c68a65"/></g><g id="XMLID_1538_"><path id="XMLID_1165_" d="m141.26 271.738c12.088 12.088 12.088 31.686 0 43.774l-21.887 21.888-21.887-21.887c-12.088-12.088-12.088-31.686 0-43.774h43.774z" fill="#c68a65"/></g><g id="XMLID_1537_"><path id="XMLID_1160_" d="m141.26 325.352c12.088 12.088 12.088 31.686 0 43.774l-21.887 21.887-21.887-21.887c-12.088-12.088-12.088-31.686 0-43.774z" fill="#c68a65"/></g><g id="XMLID_1536_"><path id="XMLID_1159_" d="m119.373 502-27.747-27.747c-15.324-15.324-15.324-40.169 0-55.493l27.747-27.747 27.747 27.747c15.324 15.324 15.324 40.169 0 55.493z" fill="#c68a65"/></g><g id="XMLID_1535_"><path id="XMLID_1132_" d="m414.514 218.125c12.088 12.088 12.088 31.686 0 43.774l-21.887 21.887-21.887-21.887c-12.088-12.088-12.088-31.686 0-43.774z" fill="#c68a65"/></g><g id="XMLID_1534_"><path id="XMLID_1106_" d="m414.514 271.738c12.088 12.088 12.088 31.686 0 43.774l-21.887 21.888-21.887-21.887c-12.088-12.088-12.088-31.686 0-43.774h43.774z" fill="#c68a65"/></g><g id="XMLID_1533_"><path id="XMLID_428_" d="m414.514 325.352c12.088 12.088 12.088 31.686 0 43.774l-21.887 21.887-21.887-21.887c-12.088-12.088-12.088-31.686 0-43.774z" fill="#c68a65"/></g><g id="XMLID_1532_"><path id="XMLID_427_" d="m392.627 502-27.747-27.747c-15.324-15.324-15.324-40.169 0-55.493l27.747-27.747 27.747 27.747c15.324 15.324 15.324 40.169 0 55.493z" fill="#c68a65"/></g><g id="XMLID_2163_"><path d="m323.627 381.052-34.85-18.217c-10.327-5.398-22.7-5.123-32.777.728-10.077-5.851-22.45-6.126-32.777-.728l-34.85 18.217c37.303 37.302 97.672 37.302 134.975 0" fill="#ff7d97"/></g><g id="XMLID_2107_"><path id="XMLID_426_" d="m255.873 10c-66.182 0-122.202 48.861-131.195 114.429l-5.305 38.68h273l-5.305-38.68c-8.993-65.568-65.013-114.429-131.195-114.429z" fill="#ffcd69"/></g><g id="XMLID_2137_"><path id="XMLID_398_" d="m386.222 119.109h-260.698c-.314 1.761-.601 3.533-.846 5.32l-5.305 38.68h273l-5.305-38.68c-.245-1.787-.532-3.559-.846-5.32z" fill="#ffda8f"/></g><g id="XMLID_2044_"><path id="XMLID_359_" d="m392.627 163.109 55.5 31.891c-32.614 21.525-70.831 33-109.908 33h-82.219-82.219c-39.077 0-77.294-11.475-109.908-33l55.5-31.891z" fill="#ffcd69"/></g></g><g id="XMLID_1167_"><path id="XMLID_1171_" d="m453.109 186.33-51.518-29.603-4.617-33.657c-4.678-34.106-21.542-65.352-47.485-87.979-25.944-22.629-59.19-35.091-93.616-35.091s-67.672 12.462-93.616 35.09c-25.943 22.628-42.808 53.873-47.485 87.979l-4.638 33.815-51.243 29.446c-3.008 1.729-4.905 4.893-5.013 8.361-.107 3.468 1.591 6.744 4.486 8.655 8.475 5.593 17.289 10.533 26.376 14.805-4.109 6.482-6.32 13.999-6.32 21.861 0 9.956 3.54 19.363 10.006 26.806-6.466 7.443-10.005 16.851-10.005 26.807s3.539 19.363 10.005 26.806c-6.466 7.444-10.005 16.851-10.005 26.807 0 10.938 4.26 21.223 11.994 28.958l5.138 5.138c-4.323 1.103-7.524 5.012-7.524 9.678s3.201 8.574 7.523 9.678l-10.998 10.998c-19.197 19.199-19.197 50.436 0 69.636l27.747 27.747c1.953 1.953 4.512 2.929 7.071 2.929 2.56 0 5.118-.976 7.071-2.929l27.747-27.747c19.197-19.199 19.197-50.436 0-69.636l-10.997-10.997c4.322-1.104 7.523-5.012 7.523-9.678 0-4.667-3.201-8.575-7.523-9.678l5.138-5.138c7.734-7.735 11.994-18.02 11.994-28.958 0-9.957-3.54-19.365-10.006-26.808 13.3-15.336 13.301-38.27.003-53.607 7.129-8.218 10.57-18.758 9.94-29.265 4.488.288 8.995.441 13.518.441h164.438c4.524 0 9.031-.153 13.519-.441-.629 10.507 2.813 21.05 9.938 29.264-6.464 7.443-10.001 16.848-10.001 26.803 0 9.956 3.539 19.363 10.005 26.806-6.466 7.444-10.005 16.851-10.005 26.807 0 10.938 4.26 21.223 11.994 28.958l5.138 5.138c-4.322 1.103-7.524 5.012-7.524 9.678s3.201 8.574 7.523 9.678l-10.998 10.998c-19.197 19.199-19.197 50.436 0 69.636l27.747 27.747c1.953 1.953 4.512 2.929 7.071 2.929s5.118-.976 7.071-2.929l27.747-27.747c19.197-19.199 19.197-50.436 0-69.636l-10.997-10.997c4.322-1.104 7.523-5.012 7.523-9.678 0-4.667-3.201-8.575-7.523-9.678l5.138-5.138c7.734-7.735 11.994-18.02 11.994-28.958 0-9.956-3.539-19.364-10.005-26.807 6.466-7.443 10.005-16.85 10.005-26.806 0-9.957-3.539-19.364-10.005-26.807 6.466-7.443 10.006-16.85 10.006-26.807 0-7.861-2.211-15.379-6.32-21.861 9.087-4.273 17.901-9.212 26.376-14.805 2.896-1.911 4.594-5.187 4.486-8.655-.106-3.469-2.004-6.634-5.012-8.362zm-197.236-166.33c55.119 0 103.078 37.287 117.794 89.109h-72.794c-5.522 0-10 4.477-10 10s4.478 10 10 10h76.743l3.293 24h-250.07l3.292-24h76.743c5.522 0 10-4.477 10-10s-4.478-10-10-10h-72.794c14.715-51.822 62.674-89.109 117.793-89.109zm-119.705 261.133c2.685 3.594 4.157 7.925 4.157 12.493 0 5.596-2.179 10.858-6.137 14.816l-14.816 14.816-14.815-14.816c-3.958-3.957-6.137-9.219-6.137-14.815 0-4.568 1.473-8.898 4.158-12.493l9.723 9.724c1.876 1.875 4.419 2.929 7.071 2.929s5.195-1.054 7.071-2.929zm4.157 66.106c0 5.596-2.179 10.858-6.137 14.816l-14.816 14.816-14.815-14.816c-3.958-3.957-6.137-9.219-6.137-14.815 0-4.567 1.472-8.898 4.157-12.492l9.724 9.724c1.876 1.875 4.419 2.929 7.071 2.929s5.195-1.054 7.071-2.929l9.724-9.724c2.686 3.593 4.158 7.924 4.158 12.491zm-.276 119.943-20.676 20.676-20.676-20.675c-11.4-11.401-11.4-29.951 0-41.352l20.676-20.676 20.676 20.675c11.4 11.401 11.4 29.952 0 41.352zm-5.86-212.354-14.816 14.816-14.815-14.816c-3.958-3.957-6.138-9.219-6.138-14.815 0-5.234 1.927-10.16 5.411-14.015 11.674 4.138 23.698 7.233 35.951 9.24 1.628 6.946-.38 14.377-5.593 19.59zm279.39 92.411c0 5.596-2.179 10.858-6.137 14.816l-14.815 14.816-14.816-14.816c-3.958-3.957-6.137-9.219-6.137-14.815 0-4.567 1.472-8.898 4.157-12.492l9.724 9.724c1.876 1.875 4.419 2.929 7.071 2.929s5.195-1.054 7.071-2.929l9.724-9.724c2.686 3.593 4.158 7.924 4.158 12.491zm-4.157-66.106c2.685 3.594 4.157 7.925 4.157 12.493 0 5.596-2.179 10.858-6.137 14.816l-14.815 14.816-14.816-14.816c-7.437-7.437-8.081-19.107-1.977-27.306l9.721 9.722c1.876 1.875 4.419 2.929 7.071 2.929s5.195-1.054 7.071-2.929zm3.881 186.049-20.676 20.676-20.676-20.675c-11.4-11.401-11.4-29.951 0-41.352l20.676-20.676 20.676 20.675c11.4 11.401 11.4 29.952 0 41.352zm-5.861-212.354-14.815 14.816-14.817-14.816c-5.21-5.21-7.219-12.644-5.591-19.59 12.252-2.007 24.275-5.102 35.947-9.24 7.414 8.215 7.189 20.918-.724 28.83zm-69.223-36.828h-164.438c-31.67 0-62.526-7.846-90.162-22.813l38.422-22.078h267.918l38.422 22.078c-27.636 14.967-58.492 22.813-90.162 22.813z"/><path id="XMLID_1479_" d="m328.26 372.19-34.851-18.217c-11.772-6.154-25.396-6.649-37.409-1.567-12.017-5.082-25.639-4.586-37.41 1.567l-34.85 18.217c-2.82 1.475-4.771 4.204-5.252 7.35s.564 6.333 2.814 8.584c20.556 20.555 47.558 30.833 74.559 30.833 26.421 0 52.844-9.842 73.227-29.524 1.392-.906 2.578-2.171 3.402-3.747 2.558-4.896.664-10.938-4.23-13.496zm-122.129 10.863 21.724-11.356c7.328-3.832 15.974-3.639 23.124.513 3.105 1.803 6.937 1.803 10.043 0 7.15-4.151 15.794-4.344 23.123-.513l21.562 11.271c-29.623 21.302-69.922 21.331-99.576.085z"/><path id="XMLID_1480_" d="m255.87 129.11c2.64 0 5.21-1.07 7.069-2.93 1.87-1.86 2.931-4.44 2.931-7.07s-1.06-5.21-2.931-7.07c-1.859-1.86-4.44-2.93-7.069-2.93s-5.21 1.07-7.07 2.93-2.93 4.44-2.93 7.07 1.069 5.21 2.93 7.07c1.86 1.86 4.44 2.93 7.07 2.93z"/></g></g></svg>