<svg id="Capa_1" enable-background="new 0 0 512 512" height="512" viewBox="0 0 512 512" width="512" xmlns="http://www.w3.org/2000/svg"><g id="XMLID_1396_"><g fill="#c68a65"><path id="XMLID_1552_" d="m236 438h40v64h-40z"/><path id="XMLID_1551_" d="m428 272.43h-45.884v-40h45.884c11.046 0 20 8.954 20 20 0 11.045-8.954 20-20 20z"/><path id="XMLID_1550_" d="m84 272.43h45.884v-40h-45.884c-11.046 0-20 8.954-20 20 0 11.045 8.954 20 20 20z"/></g><path id="XMLID_1549_" d="m324.537 135.098c1.041 4.802 1.589 9.788 1.589 14.902 0 38.66-31.34 70-70 70s-70-31.34-70-70c0-4.833.49-9.551 1.422-14.107z" fill="#ffcd69"/><path id="XMLID_1548_" d="m382.116 220h-252.232v64.859h42.429l-27.833 139.855c22.09 8.778 45.644 13.286 69.413 13.286h46.571 37.643c23.77 0 47.324-4.509 69.413-13.286l-27.834-139.854h42.429v-64.86z" fill="#99ebfa"/><path id="XMLID_1547_" d="m321.282 98 39.156 20.641c-21.109 13.932-45.845 21.359-71.137 21.359h-53.215-13.387c-25.292 0-50.028-7.427-71.137-21.359l39.156-20.641z" fill="#ffda8f"/><path id="XMLID_1546_" d="m285.073 10h-58.146l-36.209 88h130.564z" fill="#ffda8f"/><path id="XMLID_1545_" d="m219.667 338.113h44v44h-44z" fill="#fff" transform="matrix(.707 .707 -.707 .707 325.421 -65.41)"/><g id="XMLID_2_"><path id="XMLID_99_" d="m241.666 319c-2.652 0-5.196 1.054-7.071 2.929l-31.112 31.113c-3.905 3.905-3.905 10.236 0 14.142l31.112 31.113c1.875 1.876 4.419 2.929 7.071 2.929s5.196-1.054 7.071-2.929l31.113-31.113c3.905-3.905 3.905-10.237 0-14.143l-31.113-31.113c-1.875-1.874-4.418-2.928-7.071-2.928zm0 58.083-16.97-16.971 16.97-16.971 16.971 16.971z"/><path id="XMLID_797_" d="m428 222.43h-35.884v-2.43c0-5.523-4.477-10-10-10h-73.158c16.642-14.671 27.17-36.123 27.17-60 0-2.667-.138-5.331-.401-7.978 10.574-3.746 20.72-8.765 30.22-15.035 2.95-1.947 4.653-5.307 4.48-8.837s-2.198-6.707-5.325-8.355l-35.952-18.951-34.83-84.649c-1.542-3.748-5.194-6.195-9.247-6.195h-58.146c-4.053 0-7.706 2.447-9.248 6.195l-34.83 84.649-35.951 18.951c-3.127 1.648-5.151 4.825-5.325 8.355-.174 3.531 1.529 6.89 4.48 8.837 9.573 6.318 19.803 11.369 30.465 15.123-.257 2.618-.391 5.253-.391 7.889 0 23.877 10.528 45.329 27.169 60h-73.412c-5.523 0-10 4.477-10 10v2.43h-35.884c-16.542 0-30 13.458-30 30s13.458 30 30 30h35.884v2.43c0 5.523 4.477 10 10 10h30.243l-25.455 127.902c-.942 4.733 1.63 9.463 6.115 11.245 23.365 9.286 47.962 13.994 73.106 13.994h12.107v54c0 5.523 4.477 10 10 10h40c5.523 0 10-4.477 10-10v-54h12.107c25.144 0 49.741-4.708 73.107-13.994 4.484-1.782 7.057-6.512 6.115-11.245l-4.716-23.694c-1.078-5.416-6.341-8.937-11.76-7.855-5.416 1.078-8.934 6.343-7.855 11.76l3.052 15.335c-18.659 6.435-38.112 9.694-57.942 9.694h-84.214c-19.831 0-39.284-3.258-57.942-9.694l26.17-131.495c.585-2.937-.178-5.981-2.077-8.296-1.899-2.314-4.736-3.656-7.73-3.656h-32.429v-44.86h232.231v44.859h-32.429c-2.994 0-5.831 1.342-7.73 3.656-1.9 2.315-2.662 5.359-2.077 8.295l5.55 27.886c1.078 5.417 6.347 8.935 11.759 7.855 5.417-1.078 8.934-6.343 7.856-11.759l-3.171-15.934h30.243c5.523 0 10-4.477 10-10v-2.43h35.882c16.542 0 30-13.458 30-30s-13.458-29.998-30-29.998zm-162 225.57v44h-20v-44zm-182-185.57c-5.514 0-10-4.486-10-10s4.486-10 10-10h35.884v20zm149.626-242.43h44.748l27.979 68h-100.707zm-40.433 88h125.614l20.703 10.913c-5.741 2.672-11.673 4.87-17.744 6.589-.141.041-.285.078-.423.124-10.36 2.891-21.123 4.374-32.041 4.374h-66.603c-17.472 0-34.547-3.797-50.209-11.087zm2.934 42c0-.852.028-1.702.064-2.552 8.681 1.68 17.548 2.552 26.508 2.552h66.603c9.046 0 17.996-.89 26.757-2.602.037.867.069 1.734.069 2.602 0 33.084-26.916 60-60 60-33.085 0-60.001-26.916-60.001-60zm231.873 112.43h-35.884v-20h35.884c5.514 0 10 4.486 10 10s-4.486 10-10 10z"/><path id="XMLID_818_" d="m347 349.8c-1.87 1.87-2.93 4.44-2.93 7.08 0 2.63 1.06 5.21 2.93 7.07 1.86 1.86 4.44 2.93 7.07 2.93s5.2-1.07 7.07-2.93c1.86-1.86 2.93-4.44 2.93-7.07 0-2.64-1.07-5.21-2.93-7.08-1.87-1.86-4.44-2.92-7.07-2.92-2.64 0-5.21 1.06-7.07 2.92z"/></g></g></svg>